<svg width="16" height="16" viewBox="0 0 16 16" fill="none" xmlns="http://www.w3.org/2000/svg">
<path fill-rule="evenodd" clip-rule="evenodd" d="M7.67467 2.08728C4.25133 2.08728 1.48419 4.85442 1.48419 8.27776C1.48419 11.7011 4.25133 14.4682 7.67467 14.4682C11.098 14.4682 13.8651 11.7011 13.8651 8.27776C13.8651 4.85442 11.098 2.08728 7.67467 2.08728ZM7.67467 13.2301C4.94467 13.2301 2.72229 11.0078 2.72229 8.27776C2.72229 5.54776 4.94467 3.32538 7.67467 3.32538C10.4047 3.32538 12.627 5.54776 12.627 8.27776C12.627 11.0078 10.4047 13.2301 7.67467 13.2301ZM7.67467 7.4049L9.89705 5.18252L10.7699 6.05538L8.54753 8.27776L10.7699 10.5001L9.89705 11.373L7.67467 9.15061L5.45229 11.373L4.57943 10.5001L6.80181 8.27776L4.57943 6.05538L5.45229 5.18252L7.67467 7.4049Z" fill="#539BBB"/>
</svg>
