<svg width="15" height="16" viewBox="0 0 15 16" fill="none" xmlns="http://www.w3.org/2000/svg">
<path fill-rule="evenodd" clip-rule="evenodd" d="M9.1451 9.06404L12.6922 12.6112L11.7699 13.5336L8.22272 9.98642C7.56034 10.4631 6.76176 10.754 5.88891 10.754C3.66653 10.754 1.8651 8.95261 1.8651 6.73023C1.8651 4.50785 3.66653 2.70642 5.88891 2.70642C8.11129 2.70642 9.91272 4.50785 9.91272 6.73023C9.91272 7.60309 9.62177 8.40166 9.1451 9.06404ZM5.88891 3.94452C4.34748 3.94452 3.10319 5.1888 3.10319 6.73023C3.10319 8.27166 4.34748 9.51595 5.88891 9.51595C7.43034 9.51595 8.67462 8.27166 8.67462 6.73023C8.67462 5.1888 7.43034 3.94452 5.88891 3.94452Z" fill="#539BBB"/>
</svg>
