<svg width="22" height="21" viewBox="0 0 22 21" fill="none" xmlns="http://www.w3.org/2000/svg">
<path d="M2.69081 9.99542C2.69081 8.89542 3.19452 7.85599 4.05789 7.17439L8.99991 3.27279C10.3057 2.24189 12.1484 2.24188 13.4542 3.27278L18.3962 7.17439C19.2596 7.85599 19.7633 8.89542 19.7633 9.99542V15.8913C19.7633 17.8764 18.1541 19.4855 16.1691 19.4855H14.8212C14.325 19.4855 13.9227 19.0832 13.9227 18.587V15.8913C13.9227 14.8988 13.1181 14.0942 12.1256 14.0942H10.3285C9.33598 14.0942 8.53139 14.8988 8.53139 15.8913V18.587C8.53139 19.0832 8.1291 19.4855 7.63284 19.4855H6.28502C4.29999 19.4855 2.69081 17.8764 2.69081 15.8913L2.69081 9.99542Z" stroke="#FEFEFD" stroke-width="1.34783"/>
</svg>
