<svg width="22" height="21" viewBox="0 0 22 21" fill="none" xmlns="http://www.w3.org/2000/svg">
<path d="M16.1945 8.63537L18.0837 9.65731L18.4792 9.87951C19.3217 10.3529 19.3217 11.5733 18.4792 12.0467L13.1133 15.0614C11.8688 15.7606 10.3534 15.7606 9.10891 15.0614L3.74303 12.0467C2.90045 11.5733 2.90046 10.3529 3.74303 9.87951L4.13852 9.65731L5.92296 8.63537M16.6054 13.1854L18.3226 14.0498C19.2082 14.4956 19.2366 15.7576 18.372 16.2433L13.1133 19.1979C11.8688 19.897 10.3534 19.897 9.10891 19.1979L3.92692 16.2864C3.04745 15.7923 3.09591 14.5025 4.00994 14.0766L5.92296 13.1854M13.1133 10.6655L18.4792 7.65078C19.3217 7.17739 19.3217 5.95695 18.4792 5.48356L13.1133 2.46884C11.8688 1.76966 10.3534 1.76966 9.10892 2.46884L3.74303 5.48356C2.90046 5.95695 2.90045 7.17739 3.74303 7.65078L9.10891 10.6655C10.3534 11.3647 11.8688 11.3647 13.1133 10.6655Z" stroke="#FEFEFE" stroke-width="1.33333"/>
</svg>
