<svg width="22" height="21" viewBox="0 0 22 21" fill="none" xmlns="http://www.w3.org/2000/svg">
<path d="M16.7144 11.5523L16.2256 11.099L16.7144 11.5523ZM10.429 5.26692L10.8823 5.75572L10.429 5.26692ZM19.6987 3.96424L20.3597 4.0507L19.6987 3.96424ZM18.017 2.28259L18.1035 2.94363L18.1035 2.94363L18.017 2.28259ZM6.21733 11.4116L6.81593 11.7051L6.81593 11.7051L6.21733 11.4116ZM10.5697 15.764L10.2762 15.1654L10.2762 15.1654L10.5697 15.764ZM7.75771 9.19526C7.49736 8.93491 7.07525 8.93491 6.8149 9.19526C6.55455 9.45561 6.55455 9.87772 6.8149 10.1381L7.75771 9.19526ZM11.8432 15.1664C12.1036 15.4267 12.5257 15.4267 12.786 15.1664C13.0464 14.906 13.0464 14.4839 12.786 14.2236L11.8432 15.1664ZM6.18636 16.7377C6.44671 16.4774 6.44671 16.0553 6.18636 15.7949C5.92601 15.5346 5.5039 15.5346 5.24355 15.7949L6.18636 16.7377ZM2.7294 18.3091C2.46905 18.5694 2.46905 18.9915 2.7294 19.2519C2.98975 19.5122 3.41186 19.5122 3.67221 19.2519L2.7294 18.3091ZM4.30075 14.8521C4.56109 14.5918 4.56109 14.1697 4.30075 13.9093C4.0404 13.649 3.61829 13.649 3.35794 13.9093L4.30075 14.8521ZM2.10086 15.1664C1.84051 15.4267 1.84051 15.8488 2.10086 16.1092C2.36121 16.3695 2.78332 16.3695 3.04367 16.1092L2.10086 15.1664ZM8.07198 18.6233C8.33233 18.363 8.33233 17.9409 8.07198 17.6805C7.81163 17.4202 7.38952 17.4202 7.12917 17.6805L8.07198 18.6233ZM5.87209 18.9376C5.61174 19.198 5.61174 19.6201 5.87209 19.8804C6.13244 20.1408 6.55455 20.1408 6.8149 19.8804L5.87209 18.9376ZM9.86332 18.9062L10.5233 18.8119L10.5233 18.8119L9.86332 18.9062ZM14.4517 15.8263L15.1116 15.7321L15.1116 15.7321L14.4517 15.8263ZM3.07508 12.118L3.16936 11.458L3.16936 11.458L3.07508 12.118ZM6.15492 7.52965L6.06064 8.18961L6.06064 8.18961L6.15492 7.52965ZM9.11144 14.9488L7.03246 12.8698L6.08965 13.8127L8.16863 15.8916L9.11144 14.9488ZM16.2256 11.099C14.5423 12.9138 11.8093 14.4138 10.2762 15.1654L10.8631 16.3626C12.41 15.6042 15.3395 14.0151 17.2032 12.0057L16.2256 11.099ZM6.81593 11.7051C7.56751 10.172 9.06744 7.43896 10.8823 5.75572L9.97563 4.77812C7.96619 6.64181 6.37707 9.57128 5.61872 11.1181L6.81593 11.7051ZM19.0377 3.87779C18.7676 5.94299 18.0499 9.13193 16.2256 11.099L17.2032 12.0057C19.3325 9.70979 20.0855 6.14759 20.3597 4.0507L19.0377 3.87779ZM10.8823 5.75572C12.8494 3.93135 16.0383 3.21373 18.1035 2.94363L17.9306 1.62156C15.8337 1.8958 12.2715 2.64879 9.97563 4.77812L10.8823 5.75572ZM20.3597 4.0507C20.5474 2.61615 19.3651 1.43393 17.9306 1.62156L18.1035 2.94363C18.6697 2.86958 19.1117 3.3116 19.0377 3.87779L20.3597 4.0507ZM7.03246 12.8698C6.70963 12.547 6.63075 12.0828 6.81593 11.7051L5.61872 11.1181C5.167 12.0396 5.38939 13.1124 6.08965 13.8127L7.03246 12.8698ZM8.16863 15.8916C8.86889 16.5919 9.94172 16.8143 10.8631 16.3626L10.2762 15.1654C9.8985 15.3505 9.43427 15.2717 9.11144 14.9488L8.16863 15.8916ZM6.8149 10.1381L11.8432 15.1664L12.786 14.2236L7.75771 9.19526L6.8149 10.1381ZM5.24355 15.7949L2.7294 18.3091L3.67221 19.2519L6.18636 16.7377L5.24355 15.7949ZM3.35794 13.9093L2.10086 15.1664L3.04367 16.1092L4.30075 14.8521L3.35794 13.9093ZM7.12917 17.6805L5.87209 18.9376L6.8149 19.8804L8.07198 18.6233L7.12917 17.6805ZM12.1575 6.36683C11.2029 7.32145 11.2029 8.86918 12.1575 9.8238L13.1003 8.88099C12.6664 8.44707 12.6664 7.74355 13.1003 7.30964L12.1575 6.36683ZM12.1575 9.8238C13.1121 10.7784 14.6598 10.7784 15.6145 9.8238L14.6716 8.88099C14.2377 9.3149 13.5342 9.3149 13.1003 8.88099L12.1575 9.8238ZM15.6145 9.8238C16.5691 8.86918 16.5691 7.32144 15.6145 6.36683L14.6716 7.30964C15.1056 7.74355 15.1056 8.44707 14.6716 8.88099L15.6145 9.8238ZM15.6145 6.36683C14.6598 5.41221 13.1121 5.41222 12.1575 6.36683L13.1003 7.30964C13.5342 6.87572 14.2377 6.87572 14.6716 7.30964L15.6145 6.36683ZM13.7288 16.1092L10.9004 18.9376L11.8432 19.8804L14.6716 17.052L13.7288 16.1092ZM10.5233 18.8119L10.1462 16.172L8.82623 16.3606L9.20335 19.0005L10.5233 18.8119ZM13.5403 14.1607L13.7917 15.9206L15.1116 15.7321L14.8602 13.9722L13.5403 14.1607ZM10.9004 18.9376C10.7709 19.0671 10.5492 18.9932 10.5233 18.8119L9.20335 19.0005C9.38463 20.2694 10.9368 20.7868 11.8432 19.8804L10.9004 18.9376ZM14.6716 17.052C15.0179 16.7058 15.1809 16.2168 15.1116 15.7321L13.7917 15.9206C13.8016 15.9899 13.7783 16.0597 13.7288 16.1092L14.6716 17.052ZM4.92927 7.30966L2.10084 10.1381L3.04365 11.0809L5.87207 8.25247L4.92927 7.30966ZM2.98079 12.7779L5.62066 13.1551L5.80922 11.8351L3.16936 11.458L2.98079 12.7779ZM8.00911 7.1211L6.2492 6.86968L6.06064 8.18961L7.82055 8.44103L8.00911 7.1211ZM2.10084 10.1381C1.19443 11.0445 1.71183 12.5967 2.98079 12.7779L3.16936 11.458C2.98807 11.4321 2.91416 11.2104 3.04365 11.0809L2.10084 10.1381ZM5.87207 8.25247C5.92153 8.20301 5.99139 8.17972 6.06064 8.18961L6.2492 6.86968C5.7645 6.80044 5.27548 6.96344 4.92927 7.30966L5.87207 8.25247Z" fill="#FEFEFD"/>
</svg>
